<?xml version="1.0" standalone="no"?>
<!DOCTYPE svg PUBLIC "-//W3C//DTD SVG 20010904//EN"
 "http://www.w3.org/TR/2001/REC-SVG-20010904/DTD/svg10.dtd">
<svg version="1.0" xmlns="http://www.w3.org/2000/svg"
 width="666.000000pt" height="666.000000pt" viewBox="0 0 666.000000 666.000000"
 preserveAspectRatio="xMidYMid meet">
<metadata>
Created by potrace 1.14, written by Peter Selinger 2001-2017
</metadata>
<g transform="translate(0.000000,666.000000) scale(0.100000,-0.100000)"
fill="#000000" stroke="none">
<path d="M2788 6648 c-1 -7 -2 -129 -2 -270 l-1 -258 93 0 92 0 0 -178 0 -178
78 0 c43 0 85 -3 93 -6 11 -4 14 -38 13 -184 l-1 -179 66 2 c36 1 75 2 86 2
19 1 20 8 20 178 l0 178 82 0 c45 1 85 4 89 7 3 4 7 44 8 89 1 96 1 96 111 94
l70 -1 3 175 c1 96 5 177 8 180 3 3 41 6 86 6 l81 1 3 171 c3 155 2 171 -14
175 -9 2 -89 3 -177 3 l-159 0 -4 -90 c-2 -54 -8 -93 -15 -97 -7 -5 -39 -8
-72 -7 -33 0 -66 0 -72 0 -9 -1 -13 -23 -13 -77 l0 -76 85 3 c85 4 85 4 86
-21 3 -66 0 -162 -4 -167 -3 -3 -70 -7 -149 -10 -79 -3 -159 -6 -178 -7 l-35
-1 -7 125 c-3 69 -5 193 -3 275 l3 151 -78 -2 c-43 -1 -83 -5 -89 -9 -6 -3
-11 -1 -11 4 0 16 -169 15 -172 -1z"/>
<path d="M4059 6436 c0 -17 -2 -94 -4 -171 -1 -77 -3 -143 -4 -146 0 -3 -31
-6 -68 -7 -38 0 -77 0 -88 -1 -19 -1 -20 -8 -19 -172 1 -141 -2 -172 -14 -176
-8 -3 -47 -6 -88 -7 -41 -1 -75 -5 -75 -11 -1 -5 -2 -45 -3 -87 -1 -43 -5 -81
-9 -85 -4 -3 -45 -7 -91 -7 l-83 0 0 -70 c-1 -125 8 -113 -83 -113 -45 0 -84
-3 -87 -7 -3 -3 -6 -43 -7 -88 l-1 -83 -100 0 -100 0 0 88 c0 48 -2 87 -5 88
-3 0 -43 1 -90 2 l-85 2 0 90 0 90 -87 -2 c-62 -1 -88 2 -89 10 0 7 -1 90 -2
184 l-2 173 -25 1 c-14 1 -53 1 -87 0 -34 -1 -64 2 -67 7 -3 5 -7 87 -8 181
l-3 171 -25 1 c-14 0 -90 1 -170 2 l-145 2 0 -265 0 -265 90 -5 90 -5 -1 -180
-1 -181 91 1 91 0 0 -90 0 -90 185 0 185 0 1 -83 c1 -45 4 -85 7 -88 3 -3 43
-7 89 -8 l83 -1 0 -98 1 -97 -185 2 -186 3 -2 -30 c0 -17 -2 -57 -2 -90 l-1
-60 -87 0 -88 0 0 -85 0 -85 -90 -5 -90 -5 -2 -622 -3 -623 90 0 90 0 0 -27
c1 -16 1 -336 1 -713 l0 -685 85 1 c47 1 87 -2 90 -8 3 -5 6 -169 6 -364 l0
-354 42 -1 c22 0 64 -1 91 -2 l50 -2 0 -448 c0 -290 4 -447 10 -448 6 -1 46
-2 90 -3 l80 -1 2 -70 c0 -38 2 -80 2 -93 l1 -23 168 5 c92 3 170 5 174 6 4 0
9 39 10 88 2 60 7 87 16 88 6 1 47 2 90 3 l77 1 -1 433 c-1 237 0 440 3 450 4
14 17 17 91 17 l87 0 0 362 0 363 84 2 c46 1 86 4 89 8 3 3 6 323 6 713 l1
707 75 2 c41 0 82 1 90 2 13 1 15 77 15 616 l1 615 -31 1 c-16 0 -56 1 -87 0
l-58 0 0 90 0 89 -37 1 c-21 1 -62 1 -90 0 l-53 -2 -1 43 c0 24 -1 63 -2 88
l-2 45 -264 2 c-144 1 -269 4 -276 7 -15 5 -16 161 -2 184 6 8 33 12 83 11 41
-1 78 2 82 5 3 4 9 44 12 89 l5 82 83 1 c46 1 86 4 88 7 3 3 6 43 7 88 l2 84
87 3 87 3 3 87 3 87 55 2 c30 1 71 3 91 4 l36 3 1 65 c0 37 0 79 1 94 l1 28
85 -3 85 -3 1 33 c1 17 2 56 2 85 l2 52 80 1 c44 1 85 2 90 3 6 1 10 69 11
179 l1 178 -81 -2 c-44 -1 -85 0 -91 2 -7 3 -10 37 -10 87 l1 82 -83 1 -83 0
-1 -30z"/>
</g>
</svg>
